# This file uses centimeters as units for non-parametric coordinates.

mtllib lijst om deur.mtl
g default
v -8.595435 -0.629426 14.387256
v -7.375825 -0.629426 14.387256
v -8.595435 25.261544 14.387256
v -7.375825 25.261544 14.387256
v -8.595435 25.261544 -0.117910
v -7.375825 25.261544 -0.117910
v -8.595435 -0.629426 -0.117910
v -7.375825 -0.629426 -0.117910
v -8.595435 25.261544 0.667088
v -7.375825 25.261544 0.667088
v -7.375825 -0.629426 0.667083
v -8.595435 -0.629426 0.667083
v -8.595435 25.261544 13.544074
v -7.375825 25.261544 13.544074
v -7.375825 -0.629426 13.544073
v -8.595435 -0.629426 13.544073
v -8.595435 24.647939 14.387256
v -7.375825 24.647939 14.387256
v -7.375825 24.647932 13.544074
v -7.375825 24.647932 0.667088
v -7.375825 24.647932 -0.117910
v -8.595435 24.647932 -0.117910
v -8.595435 24.647939 0.667088
v -8.595435 24.647939 13.544074
v -8.595435 -0.259978 14.387256
v -7.375825 -0.259978 14.387256
v -7.375825 -0.259972 13.544073
v -7.375825 -0.259972 0.667083
v -7.375825 -0.259972 -0.117910
v -8.595435 -0.259972 -0.117910
v -8.595435 -0.259978 0.667083
v -8.595435 -0.259978 13.544073
vt 0.375000 0.000000
vt 0.625000 0.000000
vt 0.375000 0.250000
vt 0.625000 0.250000
vt 0.875000 0.000000
vt 0.875000 0.250000
vt 0.125000 0.000000
vt 0.125000 0.250000
vt 0.130037 0.250000
vt 0.869963 0.250000
vt 0.869963 0.000000
vt 0.130037 0.000000
vt 0.368884 0.250000
vt 0.631116 0.250000
vt 0.631116 0.000000
vt 0.368884 0.000000
vt 0.375000 0.246766
vt 0.625000 0.246766
vt 0.631116 0.246766
vt 0.869963 0.246766
vt 0.875000 0.246766
vt 0.125000 0.246766
vt 0.130037 0.246766
vt 0.368884 0.246766
vt 0.375000 0.003607
vt 0.625000 0.003607
vt 0.631116 0.003607
vt 0.869963 0.003607
vt 0.875000 0.003607
vt 0.125000 0.003607
vt 0.130037 0.003607
vt 0.368884 0.003607
vn 1.000000 0.000000 0.000000
vn 1.000000 0.000000 0.000000
vn 1.000000 0.000000 0.000000
vn 1.000000 0.000000 0.000000
vn -1.000000 0.000000 0.000000
vn -1.000000 0.000000 0.000000
vn -1.000000 0.000000 0.000000
vn -1.000000 0.000000 0.000000
vn 1.000000 0.000000 0.000000
vn 1.000000 0.000000 0.000000
vn -1.000000 0.000000 0.000000
vn -1.000000 0.000000 0.000000
vn 1.000000 0.000000 0.000000
vn 1.000000 0.000000 0.000000
vn -1.000000 0.000000 0.000000
vn -1.000000 0.000000 0.000000
vn 1.000000 0.000000 0.000000
vn 1.000000 0.000000 0.000000
vn 1.000000 0.000000 0.000000
vn 1.000000 0.000000 0.000000
vn -1.000000 0.000000 0.000000
vn -1.000000 0.000000 0.000000
vn -1.000000 0.000000 0.000000
vn -1.000000 0.000000 0.000000
vn 1.000000 0.000000 0.000000
vn 1.000000 0.000000 0.000000
vn 1.000000 0.000000 0.000000
vn 1.000000 0.000000 0.000000
vn -1.000000 0.000000 0.000000
vn -1.000000 0.000000 0.000000
vn -1.000000 0.000000 0.000000
vn -1.000000 0.000000 0.000000
vn -0.000005 1.000000 0.000000
vn -0.000005 1.000000 0.000000
vn -0.000005 1.000000 0.000000
vn -0.000005 1.000000 0.000000
vn 0.000000 0.000000 -1.000000
vn 0.000000 0.000000 -1.000000
vn 0.000000 0.000000 -1.000000
vn 0.000000 0.000000 -1.000000
vn 0.000001 -0.000000 1.000000
vn 0.000001 -0.000000 1.000000
vn 0.000001 -0.000000 1.000000
vn 0.000001 -0.000000 1.000000
vn -0.000006 -1.000000 0.000000
vn -0.000006 -1.000000 0.000000
vn -0.000006 -1.000000 0.000000
vn -0.000006 -1.000000 0.000000
s 1
g pasted__pCube2 pasted__lijst group
usemtl initialShadingGroup
f 10/10/1 20/20/2 21/21/3 6/6/4
s 2
f 22/22/5 23/23/6 9/9/7 5/8/8
s 1
f 14/14/9 19/19/10 20/20/2 10/10/1
s 2
f 9/9/7 23/23/6 24/24/11 13/13/12
s 1
f 18/18/13 19/19/10 14/14/9 4/4/14
s 2
f 13/13/12 24/24/11 17/17/15 3/3/16
s 1
f 26/26/17 27/27/18 19/19/10 18/18/13
f 21/21/3 20/20/2 28/28/19 29/29/20
s 2
f 30/30/21 31/31/22 23/23/6 22/22/5
f 17/17/15 24/24/11 32/32/23 25/25/24
s 1
f 2/2/25 15/15/26 27/27/18 26/26/17
f 28/28/19 27/27/18 15/15/26 11/11/27
f 29/29/20 28/28/19 11/11/27 8/5/28
s 2
f 7/7/29 12/12/30 31/31/22 30/30/21
f 32/32/23 31/31/22 12/12/30 16/16/31
f 25/25/24 32/32/23 16/16/31 1/1/32
s off
f 27/27/33 28/28/34 31/31/35 32/32/36
f 19/19/37 27/27/38 32/32/39 24/24/40
f 28/28/41 20/20/42 23/23/43 31/31/44
f 20/20/45 19/19/46 24/24/47 23/23/48
